HIERARCHY
ROOT Root
{
	OFFSET 0.00000 0.00000 0.00000
	CHANNELS 6 Xposition Yposition Zposition Zrotation Xrotation Yrotation
	JOINT Hips
	{
		OFFSET 0 0 0	
		CHANNELS 3 Zrotation Xrotation Yrotation
		JOINT Spine
		{
			OFFSET 0 4 0	
			CHANNELS 3 Zrotation Xrotation Yrotation
			JOINT Spine1
			{
				OFFSET 0 19.4 0	
				CHANNELS 3 Zrotation Xrotation Yrotation
				JOINT Spine2
				{
					OFFSET 0 16.6 0	
					CHANNELS 3 Zrotation Xrotation Yrotation
					JOINT LeftCollar
					{
						OFFSET 0 10 0	
						CHANNELS 3 Zrotation Xrotation Yrotation
						JOINT LeftArm
						{
							OFFSET 15.6 -2 3	
							CHANNELS 3 Zrotation Xrotation Yrotation
							JOINT LeftForeArm
							{
								OFFSET 3.5 -27 -1	
								CHANNELS 3 Zrotation Xrotation Yrotation
								JOINT LeftHand
								{
									OFFSET 1 -27 1	
									CHANNELS 3 Zrotation Xrotation Yrotation
									End Site
									{
										OFFSET 0 -15 0
									}
								}
							}
						}
					}
					JOINT RightCollar
					{
						OFFSET 0 10 0	
						CHANNELS 3 Zrotation Xrotation Yrotation
						JOINT RightArm
						{
							OFFSET -15.6 -2 3	
							CHANNELS 3 Zrotation Xrotation Yrotation
							JOINT RightForeArm
							{
								OFFSET -3.5 -27 -1	
								CHANNELS 3 Zrotation Xrotation Yrotation
								JOINT RightHand
								{
									OFFSET -1 -27 1	
									CHANNELS 3 Zrotation Xrotation Yrotation
									End Site
									{
										OFFSET 0 -15 0
									}
								}
							}
						}
					}
					JOINT Neck
					{
						OFFSET 0 10 0	
						CHANNELS 3 Zrotation Xrotation Yrotation
						JOINT Head
						{
							OFFSET 0 12.7 3	
							CHANNELS 3 Zrotation Xrotation Yrotation
							End Site
							{
								OFFSET 0 12.7 3
							}
						}
					}
				}
			}
		}
	}
	JOINT LeftHip
	{
		OFFSET 0 0 0	
		CHANNELS 3 Zrotation Xrotation Yrotation
		JOINT LeftUpLeg
		{
			OFFSET 8.8 -6 0	
			CHANNELS 3 Zrotation Xrotation Yrotation
			JOINT LeftLeg
			{
				OFFSET 0 -39 2	
				CHANNELS 3 Zrotation Xrotation Yrotation
				JOINT LeftFoot
				{
					OFFSET 0 -43 -2	
					CHANNELS 3 Zrotation Xrotation Yrotation
					JOINT LeftFootFront
					{
						OFFSET 0 -7 8.5	
						CHANNELS 3 Zrotation Xrotation Yrotation
						End Site
						{
							OFFSET 0 -0.5 9
						}
					}
				}
				JOINT LeftHeel
				{
					OFFSET 0 -43 -2	
					CHANNELS 3 Zrotation Xrotation Yrotation
					End Site
					{
						OFFSET 0 -7.5 -5
					}
				}
			}
		}
	}
	JOINT RightHip
	{
		OFFSET 0 0 0	
		CHANNELS 3 Zrotation Xrotation Yrotation
		JOINT RightUpLeg
		{
			OFFSET -8.8 -6 0	
			CHANNELS 3 Zrotation Xrotation Yrotation
			JOINT RightLeg
			{
				OFFSET 0 -39 2	
				CHANNELS 3 Zrotation Xrotation Yrotation
				JOINT RightFoot
				{
					OFFSET 0 -43 -2	
					CHANNELS 3 Zrotation Xrotation Yrotation
					JOINT RightFootFront
					{
						OFFSET 0 -7 8.5	
						CHANNELS 3 Zrotation Xrotation Yrotation
						End Site
						{
							OFFSET 0 -0.5 9
						}
					}
				}
				JOINT RightHeel
				{
					OFFSET 0 -43 -2	
					CHANNELS 3 Zrotation Xrotation Yrotation
					End Site
					{
						OFFSET 0 -7.5 -5
					}
				}
			}
		}
	}
}
MOTION
Frames: 22
Frame Time: 0.025
0 46.371 0 -0 0 -0 137.06 -68.307 131.98 -3.7843 2.9773 1.8553 -3.7843 2.9773 1.8553 -3.1718 2.5093 1.5451 -0 0 -0 49.07 13.47 29.617 1.4067 -7.7331 30.247 -0 0 -0 -0 0 -0 -34.299 9.1005 -37.264 -8.1681 -4.0212 -1.1315 -0 0 -0 1.0914 4.5909 -58.933 1.0914 4.5909 -58.933 137.06 -68.307 131.98 4.2076 14.909 0.012979 7.9651 4.7217 9.0256 -0 0 -0 -0 0 -0 -0 0 -0 137.06 -68.307 131.98 -169.72 74.202 153.66 -76.652 -79.51 -97.655 -0 0 -0 -0 0 -0 -0 0 -0 
0 46.371 0 -0 0 -0 137.11 -68.291 132.03 -3.7881 2.9988 1.8714 -3.7881 2.9988 1.8714 -3.1749 2.5274 1.5585 -0 0 -0 49.086 13.42 29.608 1.3999 -7.7276 30.262 -0 0 -0 -0 0 -0 -34.282 9.1088 -37.307 -8.1615 -4.0285 -1.1507 -0 0 -0 1.1018 4.584 -58.951 1.1018 4.5841 -58.951 137.11 -68.291 132.03 4.2094 14.934 0.023814 7.962 4.7205 9.0214 -0 0 -0 -0 0 -0 -0 0 -0 137.11 -68.291 132.03 -169.71 74.174 153.65 -76.626 -79.509 -97.622 -0 0 -0 -0 0 -0 -0 0 -0 
0 46.371 0 -0 0 -0 137.22 -68.259 132.11 -3.7885 3.0262 1.8935 -3.7885 3.0262 1.8935 -3.1751 2.5505 1.5769 -0 0 -0 49.1 13.357 29.588 1.3928 -7.7119 30.287 -0 0 -0 -0 0 -0 -34.271 9.1348 -37.344 -8.1518 -4.0411 -1.1786 -0 0 -0 1.1039 4.5828 -58.973 1.1039 4.5828 -58.973 137.22 -68.259 132.11 4.2139 14.984 0.039803 7.9564 4.7208 9.0195 -0 0 -0 -0 0 -0 -0 0 -0 137.22 -68.259 132.11 -169.69 74.122 153.64 -76.59 -79.508 -97.576 -0 0 -0 -0 0 -0 -0 0 -0 
0 46.371 0 -0 0 -0 137.34 -68.225 132.21 -3.7843 3.0467 1.9116 -3.7843 3.0467 1.9116 -3.1715 2.5679 1.592 -0 0 -0 49.105 13.307 29.561 1.3902 -7.6951 30.32 -0 0 -0 -0 0 -0 -34.271 9.1703 -37.357 -8.1448 -4.0534 -1.2016 -0 0 -0 1.0924 4.5929 -58.986 1.0924 4.5929 -58.986 137.34 -68.225 132.21 4.2198 15.041 0.057041 7.9508 4.725 9.0278 -0 0 -0 -0 0 -0 -0 0 -0 137.34 -68.225 132.21 -169.67 74.063 153.62 -76.553 -79.507 -97.531 -0 0 -0 -0 0 -0 -0 0 -0 
0 46.371 0 -0 0 -0 137.44 -68.193 132.3 -3.782 3.0622 1.9215 -3.782 3.0623 1.9215 -3.1695 2.5809 1.6003 -0 0 -0 49.112 13.273 29.536 1.3915 -7.6844 30.362 -0 0 -0 -0 0 -0 -34.271 9.1996 -37.36 -8.1372 -4.0666 -1.2157 -0 0 -0 1.0802 4.6073 -58.99 1.0802 4.6073 -58.99 137.44 -68.193 132.3 4.222 15.091 0.069653 7.9486 4.7326 9.0461 -0 0 -0 -0 0 -0 -0 0 -0 137.44 -68.193 132.3 -169.67 74.012 153.62 -76.515 -79.506 -97.488 -0 0 -0 -0 0 -0 -0 0 -0 
0 46.371 0 -0 0 -0 137.54 -68.16 132.38 -3.7836 3.0811 1.9274 -3.7836 3.0811 1.9274 -3.1707 2.5968 1.6051 -0 0 -0 49.124 13.24 29.519 1.3964 -7.6746 30.406 -0 0 -0 -0 0 -0 -34.263 9.2145 -37.373 -8.1281 -4.0836 -1.2236 -0 0 -0 1.0763 4.6181 -58.99 1.0763 4.6181 -58.99 137.54 -68.16 132.38 4.2226 15.143 0.075305 7.9494 4.7353 9.0592 -0 0 -0 -0 0 -0 -0 0 -0 137.54 -68.16 132.38 -169.69 73.963 153.63 -76.481 -79.506 -97.452 -0 0 -0 -0 0 -0 -0 0 -0 
0 46.371 0 -0 0 -0 137.65 -68.128 132.48 -3.7874 3.1112 1.935 -3.7874 3.1112 1.935 -3.1738 2.6221 1.6113 -0 0 -0 49.137 13.184 29.519 1.4038 -7.6592 30.444 -0 0 -0 -0 0 -0 -34.244 9.2025 -37.415 -8.1233 -4.105 -1.2243 -0 0 -0 1.084 4.615 -58.993 1.084 4.6151 -58.993 137.65 -68.128 132.48 4.2236 15.197 0.075658 7.9522 4.7333 9.0661 -0 0 -0 -0 0 -0 -0 0 -0 137.65 -68.128 132.48 -169.71 73.913 153.66 -76.45 -79.506 -97.421 -0 0 -0 -0 0 -0 -0 0 -0 
0 46.371 0 -0 0 -0 137.75 -68.098 132.58 -3.7875 3.1509 1.9387 -3.7875 3.1509 1.9387 -3.1738 2.6555 1.6143 -0 0 -0 49.135 13.117 29.547 1.4085 -7.642 30.479 -0 0 -0 -0 0 -0 -34.232 9.1588 -37.465 -8.1238 -4.1308 -1.2254 -0 0 -0 1.0938 4.594 -58.99 1.0938 4.5939 -58.99 137.75 -68.098 132.58 4.2245 15.248 0.071677 7.9571 4.7317 9.0721 -0 0 -0 -0 0 -0 -0 0 -0 137.75 -68.098 132.58 -169.73 73.863 153.69 -76.422 -79.507 -97.396 -0 0 -0 -0 0 -0 -0 0 -0 
0 46.371 0 -0 0 -0 137.86 -68.07 132.68 -3.7819 3.1938 1.9362 -3.7819 3.1938 1.9362 -3.169 2.6915 1.612 -0 0 -0 49.114 13.056 29.595 1.4088 -7.6257 30.512 -0 0 -0 -0 0 -0 -34.236 9.0991 -37.505 -8.1215 -4.1544 -1.2357 -0 0 -0 1.0984 4.5619 -58.98 1.0984 4.5619 -58.98 137.86 -68.07 132.68 4.2267 15.294 0.064896 7.9624 4.7323 9.0777 -0 0 -0 -0 0 -0 -0 0 -0 137.86 -68.07 132.68 -169.74 73.813 153.71 -76.396 -79.509 -97.378 -0 0 -0 -0 0 -0 -0 0 -0 
0 46.371 0 -0 0 -0 137.96 -68.047 132.77 -3.7736 3.2362 1.9326 -3.7736 3.2362 1.9326 -3.1619 2.7271 1.6088 -0 0 -0 49.087 12.999 29.656 1.4052 -7.6051 30.541 -0 0 -0 -0 0 -0 -34.251 9.0372 -37.538 -8.118 -4.1665 -1.2472 -0 0 -0 1.0996 4.5264 -58.968 1.0996 4.5264 -58.968 137.96 -68.047 132.77 4.2316 15.338 0.062928 7.9665 4.734 9.081 -0 0 -0 -0 0 -0 -0 0 -0 137.96 -68.047 132.77 -169.74 73.765 153.71 -76.367 -79.511 -97.36 -0 0 -0 -0 0 -0 -0 0 -0 
0 46.371 0 -0 0 -0 138.07 -68.025 132.86 -3.7652 3.2753 1.9299 -3.7652 3.2753 1.9299 -3.1548 2.7599 1.6064 -0 0 -0 49.068 12.96 29.721 1.3978 -7.5819 30.554 -0 0 -0 -0 0 -0 -34.265 8.9829 -37.559 -8.123 -4.1711 -1.2491 -0 0 -0 1.0982 4.4964 -58.954 1.0982 4.4964 -58.954 138.07 -68.025 132.86 4.2394 15.384 0.068434 7.9706 4.735 9.0842 -0 0 -0 -0 0 -0 -0 0 -0 138.07 -68.025 132.86 -169.71 73.716 153.69 -76.336 -79.511 -97.343 -0 0 -0 -0 0 -0 -0 0 -0 
0 46.371 0 -0 0 -0 138.21 -68 132.97 -3.759 3.3125 1.9287 -3.759 3.3126 1.9287 -3.1495 2.7912 1.6052 -0 0 -0 49.058 12.948 29.771 1.3914 -7.5628 30.555 -0 0 -0 -0 0 -0 -34.272 8.9398 -37.566 -8.1315 -4.1825 -1.2401 -0 0 -0 1.0978 4.4765 -58.939 1.0978 4.4765 -58.939 138.21 -68 132.97 4.2475 15.443 0.077464 7.9765 4.7333 9.0927 -0 0 -0 -0 0 -0 -0 0 -0 138.21 -68 132.97 -169.66 73.655 153.65 -76.311 -79.512 -97.335 -0 0 -0 -0 0 -0 -0 0 -0 
0 46.371 0 -0 0 -0 138.38 -67.965 133.1 -3.7553 3.3515 1.9316 -3.7553 3.3515 1.9316 -3.1463 2.8239 1.6075 -0 0 -0 49.053 12.949 29.794 1.3864 -7.5517 30.55 -0 0 -0 -0 0 -0 -34.269 8.9092 -37.564 -8.1295 -4.2036 -1.2313 -0 0 -0 1.1016 4.4666 -58.925 1.1016 4.4666 -58.925 138.38 -67.965 133.1 4.2535 15.52 0.086046 7.9836 4.729 9.107 -0 0 -0 -0 0 -0 -0 0 -0 138.38 -67.965 133.1 -169.59 73.577 153.61 -76.293 -79.513 -97.335 -0 0 -0 -0 0 -0 -0 0 -0 
0 46.371 0 -0 0 -0 138.59 -67.918 133.27 -3.7512 3.398 1.9417 -3.7512 3.398 1.9417 -3.1427 2.863 1.6158 -0 0 -0 49.045 12.93 29.809 1.374 -7.5489 30.54 -0 0 -0 -0 0 -0 -34.26 8.8831 -37.57 -8.121 -4.2283 -1.2322 -0 0 -0 1.1103 4.4564 -58.918 1.1103 4.4564 -58.918 138.59 -67.918 133.27 4.2589 15.615 0.096075 7.9899 4.7222 9.1203 -0 0 -0 -0 0 -0 -0 0 -0 138.59 -67.918 133.27 -169.53 73.483 153.56 -76.275 -79.515 -97.332 -0 0 -0 -0 0 -0 -0 0 -0 
0 46.371 0 -0 0 -0 138.8 -67.867 133.44 -3.743 3.4516 1.9571 -3.743 3.4516 1.9571 -3.1356 2.9081 1.6285 -0 0 -0 49.031 12.88 29.846 1.3473 -7.5494 30.524 -0 0 -0 -0 0 -0 -34.256 8.8547 -37.595 -8.1135 -4.254 -1.2408 -0 0 -0 1.1189 4.4373 -58.918 1.1189 4.4373 -58.918 138.8 -67.867 133.44 4.268 15.713 0.11454 7.9932 4.7158 9.1232 -0 0 -0 -0 0 -0 -0 0 -0 138.8 -67.867 133.44 -169.48 73.383 153.53 -76.254 -79.516 -97.323 -0 0 -0 -0 0 -0 -0 0 -0 
0 46.371 0 -0 0 -0 138.99 -67.823 133.59 -3.7317 3.4993 1.9717 -3.7317 3.4993 1.9717 -3.1259 2.9482 1.6406 -0 0 -0 49.013 12.826 29.896 1.3187 -7.5454 30.513 -0 0 -0 -0 0 -0 -34.261 8.8322 -37.622 -8.1035 -4.2785 -1.2482 -0 0 -0 1.12 4.4191 -58.917 1.12 4.4191 -58.917 138.99 -67.823 133.59 4.2815 15.796 0.14216 7.9932 4.7133 9.117 -0 0 -0 -0 0 -0 -0 0 -0 138.99 -67.823 133.59 -169.44 73.294 153.5 -76.235 -79.515 -97.312 -0 0 -0 -0 0 -0 -0 0 -0 
0 46.371 0 -0 0 -0 139.14 -67.794 133.7 -3.7212 3.5269 1.9859 -3.7212 3.5269 1.9859 -3.1169 2.9714 1.6524 -0 0 -0 49.001 12.784 29.924 1.3066 -7.5333 30.516 -0 0 -0 -0 0 -0 -34.27 8.8315 -37.642 -8.087 -4.3019 -1.2436 -0 0 -0 1.1108 4.4197 -58.913 1.1108 4.4197 -58.913 139.14 -67.794 133.7 4.2954 15.856 0.17666 7.991 4.7133 9.1126 -0 0 -0 -0 0 -0 -0 0 -0 139.14 -67.794 133.7 -169.38 73.227 153.45 -76.221 -79.513 -97.301 -0 0 -0 -0 0 -0 -0 0 -0 
0 46.371 0 -0 0 -0 139.23 -67.782 133.76 -3.7129 3.5335 2.0025 -3.7129 3.5335 2.0025 -3.1098 2.977 1.6664 -0 0 -0 49 12.751 29.922 1.3057 -7.5195 30.532 -0 0 -0 -0 0 -0 -34.277 8.8532 -37.657 -8.0681 -4.3205 -1.2331 -0 0 -0 1.0935 4.4416 -58.909 1.0935 4.4416 -58.909 139.23 -67.782 133.76 4.3065 15.892 0.21556 7.9894 4.7139 9.1171 -0 0 -0 -0 0 -0 -0 0 -0 139.23 -67.782 133.76 -169.28 73.186 153.37 -76.208 -79.513 -97.288 -0 0 -0 -0 0 -0 -0 0 -0 
0 46.371 0 -0 0 -0 139.28 -67.785 133.78 -3.7066 3.5242 2.0207 -3.7066 3.5242 2.0207 -3.1045 2.9693 1.6817 -0 0 -0 49.012 12.732 29.895 1.3016 -7.5101 30.554 -0 0 -0 -0 0 -0 -34.278 8.8912 -37.665 -8.0559 -4.3314 -1.2213 -0 0 -0 1.0719 4.4778 -58.908 1.0719 4.4777 -58.908 139.28 -67.785 133.78 4.3157 15.905 0.25508 7.9891 4.7159 9.1276 -0 0 -0 -0 0 -0 -0 0 -0 139.28 -67.785 133.78 -169.17 73.167 153.27 -76.194 -79.512 -97.273 -0 0 -0 -0 0 -0 -0 0 -0 
0 46.371 0 -0 0 -0 139.3 -67.798 133.77 -3.7002 3.5031 2.0381 -3.7002 3.5031 2.0381 -3.0992 2.9516 1.6965 -0 0 -0 49.027 12.728 29.854 1.2942 -7.4991 30.566 -0 0 -0 -0 0 -0 -34.279 8.9446 -37.664 -8.0524 -4.3393 -1.202 -0 0 -0 1.0458 4.5223 -58.909 1.0458 4.5223 -58.908 139.3 -67.798 133.77 4.3247 15.902 0.29172 7.9884 4.7205 9.1404 -0 0 -0 -0 0 -0 -0 0 -0 139.3 -67.798 133.77 -169.05 73.164 153.16 -76.181 -79.51 -97.262 -0 0 -0 -0 0 -0 -0 0 -0 
0 46.371 0 -0 0 -0 139.31 -67.816 133.75 -3.6925 3.4787 2.0522 -3.6925 3.4787 2.0522 -3.0927 2.9311 1.7084 -0 0 -0 49.036 12.737 29.816 1.2861 -7.4853 30.563 -0 0 -0 -0 0 -0 -34.283 9.0018 -37.652 -8.0491 -4.357 -1.1849 -0 0 -0 1.0182 4.566 -58.908 1.0182 4.566 -58.908 139.31 -67.816 133.75 4.3339 15.893 0.32141 7.9875 4.7257 9.1552 -0 0 -0 -0 0 -0 -0 0 -0 139.31 -67.816 133.75 -168.94 73.168 153.06 -76.165 -79.506 -97.256 -0 0 -0 -0 0 -0 -0 0 -0 
0 46.371 0 -0 0 -0 139.31 -67.84 133.73 -3.6852 3.4561 2.0593 -3.6852 3.4561 2.0593 -3.0866 2.9122 1.7146 -0 0 -0 49.041 12.755 29.788 1.2791 -7.4767 30.562 -0 0 -0 -0 0 -0 -34.284 9.037 -37.626 -8.0399 -4.3839 -1.1824 -0 0 -0 0.99362 4.6036 -58.903 0.99363 4.6036 -58.903 139.31 -67.84 133.73 4.3418 15.877 0.34583 7.9892 4.729 9.1693 -0 0 -0 -0 0 -0 -0 0 -0 139.31 -67.84 133.73 -168.83 73.178 152.96 -76.138 -79.502 -97.238 -0 0 -0 -0 0 -0 -0 0 -0 
